<svg width="288" height="416" viewBox="0 0 288 416" fill="none" xmlns="http://www.w3.org/2000/svg">
<path d="M161.013 183.593C162.086 183.147 163.136 182.644 164.156 182.087C164.743 181.787 165.257 181.362 165.662 180.842C165.662 180.188 165.662 180.188 165.204 179.86C164.745 179.533 163.174 178.878 161.668 178.289L159.31 177.437H158.656L155.971 176.848L148.113 174.687L85.1213 160.74C63.7093 155.96 42.1008 152.097 20.6888 146.596L-16.6349 136.905C-32.0415 133.349 -47.1477 128.599 -61.8162 122.696L-67.2511 119.487C-68.9744 118.633 -70.5629 117.53 -71.9657 116.213C-74.2913 114.326 -76.341 112.122 -78.0553 109.665C-79.5347 107.745 -80.8906 105.733 -82.1151 103.641C-82.5662 103.148 -82.8622 102.533 -82.9664 101.873C-83.041 100.954 -82.8834 100.031 -82.508 99.1886C-81.9979 97.9147 -81.3385 96.7058 -80.5436 95.5872C-76.8 90.4628 -72.1909 86.0309 -66.9237 82.4911C-58.2313 77.2434 -48.9582 73.0243 -39.2911 69.919C-28.6178 66.0556 -17.6826 62.4542 -6.55096 58.9183L6.54507 54.793L16.1052 51.7155L57.1613 39.0778C89.9013 29.1248 121.987 17.5348 153.81 6.3377C174.174 -0.930607 194.408 -8.78823 214.641 -16.3839C224.856 -19.9635 235.071 -23.6086 245.286 -27.3191L260.608 -32.4921C265.781 -34.1291 271.216 -34.9803 276.52 -36.2244C289.616 -38.9746 290.86 -32.5575 283.526 -20.1163C279.025 -12.0853 273.178 -4.88699 266.239 1.16476C257.429 8.88441 247.379 15.0609 236.511 19.4337C215.689 27.8807 194.735 35.8038 173.716 43.3995C163.239 47.1973 152.697 50.9297 142.155 54.4656L110.2 64.5496C88.9409 71.0976 67.5944 77.4273 46.1606 83.5388L14.0753 92.6406C13.486 92.6406 12.4383 93.1644 12.3728 93.0989H11.1287H9.22975L4.51518 93.6882C0.0250549 94.4107 -4.36847 95.6408 -8.58086 97.3551C-9.10471 97.3551 -9.75949 97.879 -9.95593 98.4028C-10.1524 98.9267 -9.30115 98.9267 -8.97375 99.1886L-6.35454 100.302C-4.52109 101.022 -2.55669 101.677 -0.657761 102.332L5.89026 104.1L13.7479 105.933L53.036 113.987C80.3412 119.487 107.974 124.529 135.607 129.637L183.931 138.542C194.679 140.301 205.324 142.64 215.82 145.549C222.913 148.459 229.638 152.195 235.857 156.68C237.098 157.725 238.278 158.84 239.393 160.02C240.883 161.308 241.84 163.106 242.077 165.062C242.071 169.959 240.613 174.744 237.887 178.812C235.205 183.362 231.972 187.563 228.261 191.319C218.734 200.398 208.212 208.372 196.896 215.089C194.015 216.987 190.937 218.755 187.991 220.589C185.044 222.422 181.443 224.321 179.871 225.238L167.364 231.786C158.983 236.239 150.536 240.495 142.024 244.882C90.615 269.075 37.7332 290.004 -16.3075 307.547C-57.822 321.559 -98.4197 336.03 -140.72 347.358C-149.953 349.847 -158.989 352.662 -168.483 354.692C-180.817 358.086 -193.632 359.392 -206.396 358.556C-210.22 357.891 -213.885 356.514 -217.201 354.496C-220.193 352.409 -222.862 349.894 -225.124 347.031C-227.295 344.794 -229.308 342.41 -231.148 339.894C-233.374 336.03 -231.148 331.971 -225.517 326.274C-217.897 319.348 -208.596 314.539 -198.539 312.327C-126.511 291.373 -50.5536 270.55 23.3735 243.18C50.8097 233.03 77.9839 222.095 104.569 210.439C117.665 204.415 130.761 198.129 143.857 191.45L153.614 186.343L158.263 183.724H158.721L159.9 183.331L161.013 183.593Z" fill="#171717"/>
<path d="M-30.1242 392.148C-35.3626 393.588 -40.7975 394.571 -46.2978 395.618L-62.4714 398.827C-66.4002 399.678 -70.1326 401.315 -74.1269 402.035C-88.2051 404.524 -102.414 406.619 -116.493 408.583C-122.713 409.566 -128.803 411.268 -134.827 412.84C-138.756 413.56 -142.619 414.608 -146.613 415.197C-150.66 415.656 -154.746 415.656 -158.793 415.197C-161.346 415.197 -161.739 411.203 -160.495 406.815C-159.478 401.975 -156.611 397.723 -152.507 394.964L-141.768 390.773C-138.166 389.398 -134.369 388.35 -130.636 387.302C-123.051 385.13 -115.329 383.467 -107.522 382.326C-98.049 380.127 -88.8318 376.945 -80.0201 372.831L-49.3754 362.027C-42.8273 360.063 -36.2793 358.229 -30.1242 356.134C-20.4986 352.925 -10.4801 350.175 -1.24742 346.115C5.88843 342.465 12.7785 338.353 19.3788 333.805C20.9503 332.888 22.3254 331.644 23.8969 330.924C29.9211 328.239 32.6713 329.876 36.993 338.716C37.9752 340.746 39.0229 342.71 39.8741 344.806C42.8849 350.277 42.3708 357.011 38.5645 361.962C27.6982 371.41 14.9889 378.501 1.24081 382.784C-8.84314 386.517 -19.32 389.332 -29.7313 392.934L-30.1242 392.148Z" fill="#171717"/>
</svg>
