<svg width="356" height="328" viewBox="0 0 356 328" fill="none" xmlns="http://www.w3.org/2000/svg">
<path d="M393.013 261.593C394.086 261.147 395.136 260.644 396.156 260.087C396.743 259.787 397.257 259.362 397.662 258.842C397.662 258.188 397.662 258.188 397.204 257.86C396.745 257.533 395.174 256.878 393.668 256.289L391.31 255.437H390.656L387.971 254.848L380.113 252.687L317.121 238.74C295.709 233.96 274.101 230.097 252.689 224.596L215.365 214.905C199.958 211.349 184.852 206.599 170.184 200.696L164.749 197.487C163.026 196.633 161.437 195.53 160.034 194.213C157.709 192.326 155.659 190.122 153.945 187.665C152.465 185.745 151.109 183.733 149.885 181.641C149.434 181.148 149.138 180.533 149.034 179.873C148.959 178.954 149.117 178.031 149.492 177.189C150.002 175.915 150.662 174.706 151.456 173.587C155.2 168.463 159.809 164.031 165.076 160.491C173.769 155.243 183.042 151.024 192.709 147.919C203.382 144.056 214.317 140.454 225.449 136.918L238.545 132.793L248.105 129.715L289.161 117.078C321.901 107.125 353.987 95.5348 385.81 84.3377C406.174 77.0694 426.408 69.2118 446.641 61.6161C456.856 58.0365 467.071 54.3914 477.286 50.6809L492.608 45.5079C497.781 43.8709 503.216 43.0197 508.52 41.7756C521.616 39.0254 522.86 45.4425 515.526 57.8837C511.025 65.9147 505.178 73.113 498.239 79.1648C489.429 86.8844 479.379 93.0609 468.511 97.4337C447.689 105.881 426.735 113.804 405.716 121.399C395.239 125.197 384.697 128.93 374.155 132.466L342.2 142.55C320.941 149.098 299.594 155.427 278.161 161.539L246.075 170.641C245.486 170.641 244.438 171.164 244.373 171.099H243.129H241.23L236.515 171.688C232.025 172.411 227.632 173.641 223.419 175.355C222.895 175.355 222.241 175.879 222.044 176.403C221.848 176.927 222.699 176.927 223.026 177.189L225.645 178.302C227.479 179.022 229.443 179.677 231.342 180.332L237.89 182.1L245.748 183.933L285.036 191.987C312.341 197.487 339.974 202.529 367.607 207.637L415.931 216.542C426.679 218.301 437.324 220.64 447.82 223.549C454.913 226.459 461.638 230.195 467.857 234.68C469.098 235.725 470.278 236.84 471.393 238.02C472.883 239.308 473.84 241.106 474.077 243.062C474.071 247.959 472.613 252.744 469.887 256.812C467.205 261.362 463.972 265.563 460.261 269.319C450.734 278.398 440.212 286.372 428.896 293.089C426.015 294.987 422.937 296.755 419.991 298.589C417.044 300.422 413.443 302.321 411.871 303.238L399.364 309.786C390.983 314.239 382.536 318.495 374.024 322.882C322.615 347.075 269.733 368.004 215.692 385.547C174.178 399.559 133.58 414.03 91.2801 425.358C82.0474 427.847 73.0112 430.662 63.5165 432.692C51.1829 436.086 38.3682 437.392 25.6035 436.556C21.7795 435.891 18.1145 434.514 14.7993 432.496C11.807 430.409 9.13752 427.894 6.87619 425.031C4.70514 422.794 2.69223 420.41 0.85201 417.894C-1.37432 414.03 0.85201 409.971 6.48331 404.274C14.103 397.348 23.4045 392.539 33.4611 390.327C105.489 369.373 181.446 348.55 255.373 321.18C282.81 311.03 309.984 300.095 336.569 288.439C349.665 282.415 362.761 276.129 375.857 269.45L385.614 264.343L390.263 261.724H390.721L391.9 261.331L393.013 261.593Z" fill="#171717"/>
<path d="M367.607 23.9657C374.626 22.9344 381.579 21.4914 388.429 19.6441C390.918 18.9893 393.209 17.6142 395.763 16.9594C404.668 14.3402 414.163 12.5722 423.265 9.62559C427.282 8.30907 431.217 6.75667 435.051 4.97649C439.912 2.35605 445.22 0.668175 450.701 0C452.469 0 453.189 2.88113 452.993 6.54802C453.004 9.95797 451.578 13.2148 449.064 15.5188C440 21.3348 430.259 26.0188 420.056 29.4661C413.508 31.4305 407.942 35.4248 401.525 37.913C395.108 40.4013 387.251 43.1514 379.917 45.3778C375.399 46.6219 370.881 47.866 366.231 48.9792C359.356 50.7471 352.219 51.8603 345.278 53.5628C339.974 55.0688 334.801 57.5571 329.366 59.6524C328.122 60.0453 326.943 60.6346 325.699 60.8966C321.116 61.8133 319.544 60.0453 318.365 52.5806C318.365 50.8781 317.776 49.1756 317.645 47.4076C316.616 42.8806 318.061 38.1472 321.443 34.9664C329.441 30.6845 338.211 28.0357 347.242 27.1743C353.79 26.1266 360.338 25.2753 367.41 23.7038L367.607 23.9657Z" fill="#171717"/>
</svg>
