<svg width="56" height="56" viewBox="0 0 56 56" fill="none" xmlns="http://www.w3.org/2000/svg">
<path d="M32.1344 47.6147L32.0561 47.6245C32.0561 47.6245 32.0385 47.6011 32.0129 47.6568L31.9689 47.6471C31.9257 47.625 31.885 47.5982 31.8478 47.5671L31.6056 47.3826C31.5236 47.322 31.4269 47.242 31.3331 47.1658C31.2394 47.0897 31.2483 47.0525 31.2015 46.99L31.0895 46.7751C30.9493 46.4654 30.817 46.1498 30.6808 45.8616L30.5231 45.5284L30.4121 45.3066C30.1153 44.7072 29.7767 44.1294 29.3987 43.5775C29.1257 43.1722 28.79 42.8138 28.4896 42.4289C27.3922 41.0509 26.1223 39.8193 24.711 38.7642C24.0774 38.2845 23.4075 37.8545 22.7074 37.4779C21.7968 37.0336 20.9109 36.5408 20.0536 36.0015C19.7898 35.821 19.9372 35.5765 20.3103 35.4129C20.8045 35.2011 21.359 35.1789 21.8672 35.3508C22.1194 35.4424 22.3745 35.5379 22.6237 35.6501L23.003 35.8052C23.1232 35.8676 23.2395 35.933 23.3587 36.0023C23.8316 36.2579 24.281 36.5311 24.7518 36.8493C25.6611 37.4604 26.511 38.1549 27.2907 38.924C28.2679 39.839 29.1957 40.8051 30.0702 41.8184C30.5299 42.3982 30.9526 43.0063 31.3358 43.6392C31.5278 43.9528 31.707 44.282 31.8765 44.6063L32.0051 44.8516L32.0518 44.9629L32.1441 45.1926L32.2647 45.4925C32.2764 45.5161 32.2923 45.5372 32.3116 45.555C32.3116 45.555 32.3468 45.5286 32.3625 45.5169C32.3782 45.5051 32.4409 45.4581 32.4802 45.4288L32.9706 44.9151C33.9141 43.9269 34.9555 43.0367 36.0786 42.2583C36.9302 41.6312 37.8241 41.0637 38.7539 40.5599C38.9615 40.4531 39.1604 40.3347 39.3798 40.2435C40.1937 39.9085 40.5067 39.9668 40.8032 40.3546C40.8763 40.4399 40.9437 40.53 41.005 40.6242C41.1716 40.9446 40.9055 41.3085 40.4127 41.5983C38.8451 42.3974 37.354 43.3385 35.958 44.4098C35.4368 44.824 34.9386 45.2663 34.4656 45.7347L34.1203 46.0909C33.9094 46.3159 33.671 46.5859 33.462 46.8461C33.3627 46.9813 33.2542 47.1094 33.1372 47.2296L32.9626 47.3969C32.9038 47.4409 32.8568 47.4762 32.8019 47.5173C32.7518 47.5504 32.6934 47.5688 32.6335 47.5702L32.4759 47.5968L32.1519 47.6381L32.1344 47.6147Z" fill="#C47B54"/>
<path d="M23.2405 35.6154C25.5166 37.125 27.5338 38.9909 29.215 41.142C29.8237 41.9057 30.4599 42.649 30.9883 43.4118C31.4622 44.0936 31.9203 44.7872 32.3641 45.3879L32.5367 45.6184C32.5748 45.6772 32.6168 45.7333 32.6625 45.7864C32.7495 45.9072 32.9057 45.9563 33.0467 45.9072C33.1755 45.8292 33.2963 45.7387 33.4074 45.6371L34.3116 44.8015C34.9128 44.2232 35.5276 43.6469 36.161 43.0872C37.2784 42.0575 38.4598 41.0995 39.6981 40.2189C40.5283 39.6311 41.4339 39.158 42.3902 38.8126C42.8964 38.6566 43.4192 38.5619 43.9476 38.5306C44.4889 38.5136 45.0279 38.603 45.534 38.794C46.1654 39.0406 45.9436 39.3409 45.4456 39.7383C45.1297 39.9934 44.8316 40.2696 44.5532 40.5651C44.395 40.7047 44.2259 40.8314 44.0474 40.9438C43.8756 41.0661 43.6929 41.1723 43.5017 41.2611C43.3273 41.3306 43.1598 41.4256 42.9835 41.5089C42.8072 41.5921 42.6279 41.6715 42.4487 41.7508C42.082 41.9345 41.7249 42.1368 41.3788 42.3569C40.649 42.8205 39.9476 43.3275 39.2783 43.875C38.5852 44.4367 37.9048 45.0316 37.2203 45.654L34.9787 47.6863C34.6435 48.0293 34.2573 48.3185 33.8338 48.5436C33.7342 48.5881 33.6318 48.6261 33.5273 48.6573L33.4441 48.677C33.4266 48.6535 33.4441 48.677 33.4441 48.677L33.4127 48.7004L33.2473 48.7329C33.1338 48.7551 33.0177 48.7598 32.9029 48.7469C32.7884 48.7411 32.6751 48.7216 32.5655 48.6886C32.1132 48.5774 31.6982 48.35 31.3616 48.029C31.1752 47.8742 31.0024 47.7037 30.8453 47.5192C30.7588 47.4346 30.6773 47.3449 30.6013 47.2507L30.4433 47.0397C29.6542 46.0513 29.0009 45.1136 28.3134 44.1954C26.8798 42.1824 25.1612 40.3884 23.2111 38.8693C22.0054 37.9577 20.6972 37.1898 19.3127 36.581C19.1055 36.4922 18.8993 36.3966 18.6832 36.3206L18.3626 36.1948C18.1935 36.1324 18.0312 36.071 17.8641 36.0194C17.1249 35.8168 16.414 35.6112 15.7276 35.4301L14.5734 34.9102L13.8787 34.4974C13.8378 34.4427 13.7438 34.4643 13.7255 34.35C13.7302 34.2566 13.753 34.165 13.7926 34.0801C13.8664 33.9188 13.9566 33.7654 14.0618 33.6224C14.2848 33.3131 14.5462 33.0333 14.8398 32.7899C15.2921 32.4164 15.7876 32.0986 16.3155 31.8432C16.8907 31.5472 17.4819 31.2836 18.0864 31.0537L18.5722 30.8851L18.6965 30.8469L18.7846 30.8175L18.9667 30.7665C19.2086 30.689 19.47 30.6213 19.704 30.5742C20.2057 30.4687 20.7144 30.3996 21.2259 30.3674C21.6838 30.3313 22.1438 30.3358 22.6006 30.3807C22.9626 30.4157 23.3197 30.4898 23.6655 30.6016C23.9015 30.6897 24.1194 30.82 24.3084 30.9861C24.4515 31.1077 24.5655 31.2599 24.6419 31.4315C24.6944 31.6081 24.7242 31.7906 24.7306 31.9749C24.7491 32.1247 24.7599 32.2754 24.7628 32.4264C24.7424 32.7832 23.9098 33.1506 22.9736 33.1016C22.2809 33.0274 21.5822 33.0254 20.8886 33.0958C20.5422 33.1268 20.1983 33.1807 19.8589 33.2571C19.6866 33.2886 19.5163 33.3308 19.3381 33.3788L19.2725 33.3975L19.2254 33.4327C19.187 33.5285 19.2869 33.5147 19.284 33.5108C19.284 33.5108 19.2664 33.4874 19.3397 33.5362L19.717 33.6805C19.9663 33.7682 20.2106 33.8902 20.454 33.9945C21.441 34.4319 22.3946 34.9406 23.3073 35.5166L23.2405 35.6154Z" fill="#C47B54"/>
<path d="M31.3361 26.1193C31.1359 25.9582 30.9455 25.802 30.7483 25.6204L30.4603 25.3665L30.2328 25.1527L29.6316 24.5541C29.2392 24.1527 28.8586 23.7426 28.482 23.3295C28.1053 22.9164 27.7472 22.4954 27.3921 22.0784L27.1199 21.7639C27.0672 21.6936 27.0672 21.6936 27.0584 21.6819L27.0292 21.6428L26.9121 21.4865C26.7776 21.3068 26.6681 21.2424 26.5268 21.0373C26.4478 20.9318 26.36 20.8146 26.2634 20.6857C26.2184 20.6178 26.1696 20.5526 26.1171 20.4903C26.0937 20.4591 26.037 20.4405 26.0301 20.464C26.0232 20.4875 26.0066 20.4816 26.0124 20.5139C25.9849 20.7007 25.9808 20.8902 26.0003 21.0779C26.0057 21.2567 26.0238 21.4688 26.0516 21.7102L26.1005 22.0943L26.2452 22.9739L26.8682 26.6905C27.0165 27.493 27.1168 28.3036 27.1686 29.1183C27.1835 29.5346 27.1707 29.9516 27.1303 30.3665C27.0848 30.8066 26.9832 31.2394 26.8278 31.6541C26.623 32.1978 26.1277 31.904 25.6768 31.4001C25.5722 31.2753 25.4746 31.1449 25.3843 31.0094C25.2723 30.8626 25.1723 30.7071 25.085 30.5444C24.9038 30.2139 24.8019 29.8456 24.7872 29.4685C24.6829 27.9544 24.4997 26.4469 24.2385 24.9523C24.1133 24.1476 23.9828 23.355 23.8471 22.5745C23.708 21.8249 23.5591 21.0949 23.4404 20.3971C23.3218 19.6993 23.206 19.0055 23.1713 18.4034L23.1225 17.946L23.122 17.7329C23.1263 17.6762 23.138 17.6204 23.1567 17.5667L23.2201 17.2509L23.2776 16.9273C23.3032 16.8471 23.3406 16.7826 23.3623 16.7054C23.4118 16.5637 23.4693 16.425 23.5345 16.2898L23.624 16.1069C23.6574 16.016 23.7291 15.9444 23.8201 15.9112C23.9852 15.877 24.1562 15.888 24.3152 15.943C24.4722 15.986 24.6268 16.0371 24.7786 16.096C25.2459 16.2871 25.6683 16.5729 26.0191 16.9354C26.597 17.5028 27.1999 18.2343 27.7882 18.8974L29.2704 20.5743C29.9788 21.3731 30.7049 22.1466 31.4614 22.8789L32.2374 23.621C32.4219 23.7939 32.6123 23.9501 32.8399 24.1395C32.9717 24.242 33.1104 24.3455 33.254 24.4392C33.3976 24.5329 33.4933 24.5953 33.6184 24.6724C33.6294 24.685 33.6467 24.6902 33.6629 24.6859C33.6791 24.6815 33.6915 24.6683 33.6947 24.6518L33.7008 24.5619C33.6961 24.4984 33.6943 24.4387 33.6856 24.3781L33.5926 23.6002C33.558 23.3334 33.5235 23.0421 33.5046 22.7636L33.4495 22.0853L33.4103 21.2975C33.2798 19.6362 33.4133 17.9638 33.8059 16.3424C33.8974 15.9726 34.0167 15.6101 34.1627 15.258C34.3407 14.7644 34.6455 14.3259 35.0463 13.9865C35.3283 13.7996 35.6832 13.7613 35.9976 13.8839C36.1607 13.9205 36.3206 13.97 36.4757 14.032C36.9565 14.2818 36.9618 14.9181 36.7026 15.6915C36.3135 16.8513 36.0739 18.0553 35.9894 19.2746C35.9442 19.9136 35.9338 20.5544 35.9584 21.1943C35.9703 21.5208 35.992 21.8521 36.0176 22.1805L36.0424 22.4669L36.1115 23.0249C36.1526 23.3905 36.2075 23.7579 36.2653 24.1293C36.4202 24.9051 36.5008 25.6942 36.5062 26.4857C36.4886 26.735 36.4211 26.9784 36.3078 27.2014C36.2343 27.3581 36.1343 27.5011 36.0123 27.624C35.892 27.7351 35.7606 27.8335 35.6202 27.9176C35.5399 27.9645 35.4568 28.0063 35.3714 28.0429C35.2936 28.0744 35.2129 28.098 35.1305 28.1135C34.6654 28.2268 34.1752 28.1573 33.7612 27.9194C32.883 27.4211 32.0473 26.8518 31.2625 26.2171L31.3361 26.1193Z" fill="#C47B54"/>
<path d="M40.9533 29.4245C40.766 28.8147 40.6001 28.201 40.4333 27.5942C40.2665 26.9874 40.1232 26.3629 39.9446 25.7649C39.8234 25.3252 39.6395 24.908 39.5408 24.4574C39.1727 22.9037 38.8557 21.3117 38.4994 19.7491C38.3484 19.0572 38.1436 18.3751 37.9486 17.7224C37.6377 16.8649 37.468 15.9622 37.4463 15.0495C37.4499 14.7602 37.7357 14.7169 38.1169 14.8583C38.589 15.0269 38.9901 15.3494 39.2556 15.774L39.5662 16.4013C39.647 16.6052 39.7171 16.8133 39.776 17.0247C39.9158 17.4566 40.041 17.8934 40.1505 18.3419C40.3969 19.2185 40.6178 20.1019 40.7858 21.0127C40.9075 21.5572 41.0704 22.0917 41.2731 22.6113C41.4695 23.135 41.6796 23.6607 41.8495 24.1981L42.445 25.9413L43.0631 27.6738C43.3383 28.3763 43.6037 29.0984 43.8779 29.7833C44.2808 30.8444 44.763 31.8735 45.3205 32.8619C45.5581 33.2241 45.818 33.5712 46.0987 33.9011C46.3797 34.2273 46.6598 34.5359 46.9271 34.8602C47.0383 35.0086 47.174 35.1326 47.2911 35.2645C47.7321 35.7635 47.6746 36.0871 47.3181 36.6163C47.2308 36.7366 47.159 36.8696 47.0658 36.9821C46.7675 37.3518 46.2684 37.3963 45.73 37.086C45.5424 36.9581 45.3549 36.8303 45.1723 36.6926C44.9896 36.555 44.8403 36.4046 44.6734 36.2552C44.5064 36.1058 44.3512 35.9476 44.1931 35.7855C44.0303 35.6316 43.8829 35.4622 43.7531 35.2796C43.2395 34.5656 42.7849 33.8109 42.3936 33.023C42.0941 32.4485 41.8241 31.8589 41.5848 31.2566C41.325 30.6645 41.0975 30.0665 40.8965 29.4548L40.9533 29.4245Z" fill="#C47B54"/>
<path d="M10.3483 26.9636C10.548 27.1175 10.7205 27.3036 10.8587 27.5144C11.0114 27.7156 11.1229 27.945 11.1868 28.1895C11.2534 28.4262 11.2976 28.6686 11.319 28.9137C11.3239 29.1613 11.3043 29.4088 11.2605 29.6527C11.2386 29.8277 11.1921 30.0027 11.1663 30.1806C11.1161 30.356 11.0549 30.5281 10.983 30.6959C10.3142 31.9346 8.94967 32.6336 7.55529 32.4518L7.08685 32.3574C6.93362 32.3192 6.78307 32.271 6.63615 32.2132C6.3563 32.0809 6.10336 31.8983 5.88994 31.6744C5.7462 31.5313 5.62401 31.3681 5.52714 31.1899C5.44075 31.0052 5.38221 30.8086 5.35341 30.6065C5.34165 30.4223 5.34865 30.2372 5.37432 30.0543C5.41813 29.8881 5.48366 29.7283 5.5692 29.579C5.68021 29.3922 6.03986 29.562 6.40232 29.7845C6.58893 29.8947 6.77162 30.008 6.91815 30.1056C7.06467 30.2032 7.20939 30.2411 7.21612 30.291C7.22284 30.3408 7.27768 30.3242 7.26586 30.3574C7.25403 30.3906 7.2933 30.3368 7.30114 30.331C7.30898 30.3251 7.30114 30.331 7.32075 30.3163C7.32983 30.3211 7.33628 30.3297 7.3383 30.3397C7.34111 30.3925 7.39758 30.5088 7.64294 30.5994C7.76672 30.6468 7.90652 30.6255 8.01096 30.5434C8.0901 30.4647 8.16021 30.3774 8.22 30.2832C8.44985 30.0355 8.53612 29.6874 8.44824 29.3622C8.36554 29.1677 8.18993 29.0285 7.98145 28.9922C7.61857 28.9036 7.23514 29.0124 6.97201 29.2786C6.78954 29.5177 6.73374 29.8298 6.82224 30.1164C6.8399 30.1638 6.85385 30.2124 6.86395 30.262C6.86418 30.3157 6.84801 30.3682 6.8176 30.4126C6.76897 30.4614 6.71349 30.503 6.65293 30.5359C6.48405 30.6322 6.30186 30.7028 6.11233 30.7456C5.99582 30.778 5.89201 30.8191 5.78334 30.8456C5.61204 30.8923 5.42996 30.8776 5.26879 30.8041C5.0789 30.7201 4.92091 30.5779 4.81774 30.3979L4.72734 30.1546C4.70604 30.0608 4.6975 29.9513 4.68112 29.8477C4.64915 29.6293 4.65665 29.4069 4.70326 29.1908C4.74315 28.9663 4.80328 28.7457 4.88293 28.5319C4.97475 28.3208 5.08151 28.1166 5.2024 27.9207C5.45392 27.5396 5.77827 27.2117 6.15674 26.956C6.51009 26.7221 6.89779 26.5449 7.3057 26.4309C7.58579 26.3488 7.87543 26.3041 8.16703 26.2981C8.30329 26.3104 8.4401 26.3158 8.57695 26.3144C8.71373 26.3039 8.85124 26.314 8.98488 26.3443C9.49638 26.4339 9.98036 26.6386 10.4002 26.9431L10.3483 26.9636Z" fill="#C47B54"/>
<path d="M22.0885 11.6288C22.207 11.8459 22.2978 12.0769 22.3588 12.3167C22.3988 12.5578 22.4078 12.8032 22.3854 13.0468C22.3402 13.5246 22.2108 13.991 22.0034 14.4244C21.8511 14.7444 21.631 15.0278 21.3586 15.2549C20.339 16.0916 18.6242 15.5342 18.0468 14.7958C17.886 14.618 17.742 14.4257 17.6167 14.2215C17.4777 14.0084 17.3886 13.7666 17.3562 13.514C17.2775 13.1861 17.3068 12.8413 17.4398 12.5306C17.5625 12.2571 17.7736 12.0324 18.0391 11.8928C18.1978 11.8105 18.3685 12.0547 18.5282 12.3497C18.6879 12.6448 18.8799 12.9828 18.9169 13.0649C18.9201 13.0943 18.936 13.1208 18.9603 13.1376C18.9846 13.1545 19.0151 13.16 19.0438 13.1527C19.0866 13.1419 19.1319 13.1471 19.171 13.1672C19.2405 13.2047 19.308 13.2457 19.3732 13.2902C19.4025 13.3293 19.4376 13.3762 19.4698 13.4191C19.502 13.4621 19.4931 13.4993 19.5213 13.5452C19.5627 13.6357 19.661 13.6857 19.7588 13.6661C19.8479 13.6457 19.9325 13.6092 20.0086 13.5584C20.2189 13.4179 20.3431 13.1799 20.3379 12.9276C20.3277 12.7444 20.2213 12.5805 20.0581 12.4968C19.7695 12.3158 19.4015 12.318 19.1139 12.5026C19.0041 12.5848 18.9334 12.711 18.9713 12.7862C18.9713 12.7862 18.9713 12.7862 18.9889 12.8097C18.9889 12.8097 19.0065 12.8331 18.9889 12.8097C18.9663 12.8013 18.9444 12.7912 18.9234 12.7794C18.9234 12.7794 18.9234 12.7794 19.0144 12.7784C19.1054 12.7773 19.1133 12.7714 19.1612 12.7538L19.2268 12.7352C19.1875 12.811 19.1408 12.8827 19.0874 12.9493C18.9569 13.102 18.8156 13.2565 18.643 13.4346L18.434 13.6704C18.3146 13.7887 18.1647 13.8715 18.001 13.9093C17.8862 13.9417 17.7684 13.9624 17.6496 13.9712C17.4998 13.9919 17.4266 13.9186 17.3162 13.8611C17.1496 13.7542 17.0081 13.6127 16.9014 13.4461C16.7782 13.2307 16.6965 12.9941 16.6604 12.7484C16.6016 12.1825 16.7853 11.6174 17.1661 11.1928C17.4515 10.8671 17.8132 10.6172 18.2187 10.4655C18.383 10.4038 18.5524 10.3566 18.7249 10.3243C18.9016 10.288 19.0821 10.2737 19.2621 10.2817C20.4501 10.2336 21.5976 10.7037 22.0944 11.6122L22.0885 11.6288Z" fill="#C47B54"/>
<path d="M36.2733 7.61633C36.1725 8.10521 35.9349 8.55592 35.5882 8.91603L35.4421 9.05595C35.4059 9.08915 35.3665 9.11866 35.3245 9.14403C35.2539 9.19688 35.1911 9.24386 35.1049 9.30846C34.908 9.42777 34.6971 9.5222 34.477 9.58959C34.386 9.6151 34.2842 9.64256 34.1657 9.66418C34.0469 9.68823 33.9258 9.69917 33.8046 9.69679C33.1899 9.70145 32.6366 9.3291 32.4107 8.75881C32.3248 8.5592 32.2696 8.3477 32.2468 8.13144C32.2135 7.79586 32.2124 7.45775 32.2434 7.12173C32.2656 6.849 32.2506 6.59195 32.2551 6.32021C32.1888 5.94607 32.2855 5.56088 32.5209 5.26137C32.6298 5.13713 32.9258 5.33625 33.2424 5.51384C33.5589 5.69143 33.9196 5.82987 33.9566 5.93638C34.1012 6.36557 34.1622 6.81873 34.1363 7.27141C34.1145 7.39752 34.17 7.49619 34.2042 7.50104C34.2042 7.50104 34.2385 7.5059 34.2042 7.50104L34.0827 7.59206C34.0201 7.64741 33.9642 7.70978 33.9159 7.77794C33.8755 7.82128 33.8453 7.87308 33.8275 7.92953C33.8293 7.81928 33.8044 7.71032 33.7549 7.61193C33.7258 7.54541 33.6919 7.48109 33.6536 7.41947L33.6849 7.39598L33.7438 7.35194C33.6159 7.22206 33.9204 7.53064 33.8902 7.49841L33.9048 7.51795C33.9048 7.51795 33.8902 7.49841 33.8814 7.48669C33.8502 7.47247 33.8199 7.45651 33.7905 7.43889C33.8614 7.3459 33.8967 7.23076 33.8901 7.11428C33.9019 6.8863 33.8177 6.66412 33.6578 6.50164C33.6344 6.47038 33.6001 6.48996 33.5746 6.49683C33.5491 6.5037 33.555 6.51151 33.5432 6.52032C33.5543 6.50048 33.5632 6.47949 33.5698 6.45774C33.6112 6.34138 33.576 6.34337 33.6012 6.43425L33.6392 6.48504C33.6523 6.52659 33.6699 6.56656 33.6918 6.60424C33.917 6.90507 33.5472 6.49295 33.1391 6.15221L32.8451 5.91498C32.6888 5.79355 32.5621 5.6383 32.4744 5.46082C32.4223 5.36089 32.3837 5.25443 32.3597 5.14424C32.3344 5.04628 32.3458 4.94234 32.3918 4.85195C32.4647 4.70854 32.5627 4.57932 32.6813 4.47046C32.742 4.4058 32.8079 4.34623 32.8784 4.29237C32.9674 4.23545 33.06 4.18442 33.1557 4.13962C33.3556 4.04222 33.5759 3.99439 33.7979 4.0002C34.0242 3.98647 34.251 4.01273 34.4679 4.07775C35.1279 4.28892 35.6761 4.75351 35.9921 5.36944C36.3566 6.05433 36.4853 6.84067 36.3585 7.60745L36.2733 7.61633Z" fill="#C47B54"/>
</svg>
