<svg width="43" height="53" viewBox="0 0 43 53" fill="none" xmlns="http://www.w3.org/2000/svg">
<path d="M30.1119 33.6328C29.3335 33.4418 28.6528 32.9683 28.201 32.3036C28.1082 32.1793 27.9598 32.0054 27.9041 31.9247L27.7 31.6513C27.5578 31.465 27.4465 31.3221 27.3104 31.1606C27.1743 30.9991 26.8589 30.7631 26.6549 30.5395L26.5559 30.4463L26.4817 30.3655C26.4519 30.3294 26.4187 30.2961 26.3827 30.2662C26.303 30.1837 26.1989 30.1292 26.0859 30.1109C25.8261 30.1109 25.7705 30.3904 25.721 30.6513C25.721 30.6823 25.721 30.8563 25.721 30.9619C25.721 31.0675 25.721 31.2103 25.721 31.3345C25.722 31.5781 25.7427 31.8211 25.7829 32.0613C25.8718 32.623 26.0405 33.1689 26.2838 33.6825C26.3704 33.8378 26.2838 33.9993 25.9808 34.0676C25.5248 34.1494 25.0588 33.9926 24.7439 33.6515C24.5912 33.4793 24.4507 33.2966 24.3233 33.1049C24.2225 32.9084 24.1476 32.6996 24.1007 32.4837C24.0068 32.1007 23.9488 31.7098 23.9275 31.3159L23.8904 30.7258C23.8817 30.4085 23.8941 30.091 23.9275 29.7754C24.019 29.2139 24.3309 28.7127 24.7933 28.384C25.3635 28.0597 26.0545 28.0319 26.6487 28.3095C26.9623 28.4404 27.2608 28.6049 27.5392 28.8002C27.7585 28.9394 27.9654 29.0974 28.1577 29.2723C28.5307 29.6171 28.8761 29.991 29.1905 30.3904C29.5615 30.8376 29.5677 30.906 29.7347 31.0923C29.8183 31.2113 29.9409 31.2971 30.081 31.3345C30.2261 31.3384 30.3597 31.2554 30.4212 31.1234C30.4836 31.0323 30.5355 30.9343 30.5758 30.8314C30.6039 30.7749 30.6286 30.7169 30.65 30.6575L30.7489 30.4028L31.2313 29.1605C31.4622 28.4412 31.7668 27.748 32.1404 27.092C32.2322 26.9373 32.3356 26.7899 32.4497 26.651C32.5968 26.4476 32.8201 26.313 33.0681 26.2783C33.293 26.3267 33.4955 26.4491 33.6433 26.6262C33.724 26.6984 33.7984 26.7774 33.8659 26.8622C33.9624 27.0083 34.018 27.1778 34.0267 27.3529C34.0853 27.5346 34.0853 27.7303 34.0267 27.912C33.5938 28.8287 33.2098 29.768 32.8764 30.7258L32.5857 31.4401C32.5193 31.6533 32.4366 31.8609 32.3383 32.0613C32.2612 32.2636 32.1594 32.4556 32.0353 32.6328C31.9276 32.8056 31.7988 32.9641 31.6519 33.1049L31.4416 33.3036L31.2004 33.4527C30.8642 33.6431 30.4772 33.7234 30.0934 33.6825L30.1119 33.6328Z" fill="#0875A4"/>
<path d="M21.8623 41.1363C19.7269 38.5815 17.7935 35.8629 16.0799 33.0054C14.2689 30.0391 13.0701 26.7375 12.5548 23.2966C12.1653 20.6925 12.4006 18.0327 13.2412 15.5384C14.0737 13.313 15.4958 11.3584 17.3539 9.88584C19.2014 8.45942 21.3935 7.55255 23.7053 7.25834C25.9456 6.96289 28.2227 7.14061 30.3907 7.78011C32.5715 8.43196 34.5509 9.63126 36.1422 11.2648C37.495 12.705 38.5931 14.3667 39.389 16.1782C40.1573 17.9272 40.7458 19.7504 41.1454 21.6195C41.4018 22.821 41.5713 24.0396 41.6525 25.2657C41.7502 26.4619 41.7832 27.6625 41.7515 28.8622C41.7194 31.2408 41.5501 33.6156 41.2443 35.9745C41.0464 37.4342 40.6259 37.2168 40.1682 35.9372C39.5551 33.9207 39.2058 31.8327 39.1293 29.7256C39.086 28.5454 38.9932 27.3714 38.919 26.2223C38.8525 25.0998 38.7225 23.9819 38.5294 22.8743C38.1157 20.6916 37.4104 18.575 36.4328 16.5819C35.9453 15.643 35.3607 14.7581 34.6888 13.942C34.0234 13.1659 33.2556 12.4846 32.4068 11.917C31.5291 11.3696 30.5883 10.9316 29.6052 10.6126C28.562 10.299 27.4878 10.1012 26.4017 10.0225C23.805 9.78464 21.2166 10.5586 19.1721 12.1841C17.161 13.8885 15.8663 16.294 15.548 18.9175C15.3601 20.3957 15.383 21.8933 15.6161 23.365C15.8694 24.8674 16.2841 26.3378 16.8529 27.7504C18.1216 30.6324 19.742 33.3449 21.6768 35.8254C22.691 37.1795 23.7486 38.5088 24.837 39.8319L27.8921 43.5154C27.9911 43.6272 28.0715 43.7514 28.1766 43.8508C28.2818 43.9502 28.4611 43.8135 28.591 43.7638C28.7209 43.7141 28.9311 43.5713 29.0981 43.4657L30.0134 42.8445C30.6319 42.4221 31.2874 41.9935 31.9491 41.6022C32.2769 41.3972 32.6171 41.1922 32.9572 40.981L33.5014 40.6829C33.7117 40.5711 33.891 40.4717 34.157 40.3474C35.0783 39.8868 36.0554 39.5485 37.0637 39.3412C37.9131 39.1737 38.7869 39.1737 39.6364 39.3412C40.4404 39.4864 41.1856 39.8617 41.7824 40.422C42.085 40.7134 42.22 41.139 42.1411 41.5525C42.0513 41.8815 41.8909 42.1869 41.6711 42.447C41.1802 43.0656 40.6009 43.6077 39.9518 44.0558C39.3333 44.4906 38.6098 44.9254 37.8924 45.3602L36.8472 45.9813L36.4514 46.2422L36.1113 46.4783C35.6714 46.7804 35.2577 47.1191 34.8744 47.4908C34.5546 47.7794 34.2996 48.133 34.1261 48.5281L34.0889 48.6399L33.1984 48.348C33.1847 48.3413 33.1688 48.3413 33.1551 48.348C33.0994 48.348 33.1551 48.348 33.1551 48.348C33.1551 48.348 33.1551 48.348 33.1551 48.3045L33.2046 48.2051C33.2293 48.1396 33.2419 48.0701 33.2417 48.0001C33.277 47.795 33.2936 47.5871 33.2912 47.379H33.421C33.6375 47.3417 33.9034 47.2734 34.1632 47.205L35.802 46.7454C37.3543 46.323 39.4447 45.7391 40.7867 45.8509C41.1559 45.8706 41.5214 45.9353 41.8751 46.0435C42.2079 46.1618 42.5115 46.3503 42.7657 46.5963C42.8627 46.7543 42.9357 46.926 42.9822 47.1057C43.0063 47.2496 43.0063 47.3965 42.9822 47.5405C42.9289 47.9267 42.8097 48.3007 42.6296 48.6461C42.4136 49.0595 42.1431 49.4418 41.8257 49.7828C41.1487 50.4459 40.4208 51.0544 39.6487 51.6028L39.2344 51.9134C39.1355 51.9936 39.0322 52.0682 38.9252 52.137C38.7829 52.2178 38.6531 52.2861 38.5294 52.342C38.299 52.4432 38.0613 52.5262 37.8182 52.5905C37.5957 52.6744 37.3872 52.7916 37.1997 52.9383C37.0513 53.0377 36.909 53.0315 36.7977 52.8079C36.6741 52.4604 36.6741 52.0807 36.7977 51.7333C36.8719 51.4954 36.9671 51.2646 37.0822 51.0438C37.141 50.9199 37.2071 50.7996 37.2801 50.6835L37.3358 50.5903C37.3358 50.5903 37.3358 50.5903 37.3358 50.5469V50.4723C37.4031 50.3015 37.4859 50.1372 37.5831 49.9816C37.6438 49.8916 37.6956 49.7959 37.7378 49.6959C37.7442 49.6568 37.7442 49.6169 37.7378 49.5779C37.7432 49.5495 37.7361 49.5202 37.7182 49.4975C37.7004 49.4749 37.6737 49.4611 37.645 49.4598C37.4084 49.4557 37.1745 49.5113 36.9647 49.6213L36.7421 49.7207L36.6555 49.7704H36.6184L36.5256 49.8077L35.1898 50.168C34.6592 50.3134 34.1201 50.4255 33.5756 50.5034H33.2417H32.9696C32.8253 50.4959 32.6823 50.473 32.5428 50.4351C32.4246 50.4072 32.3088 50.3698 32.1965 50.3232L32.0172 50.2425C31.8686 50.1587 31.7296 50.0587 31.6028 49.9443C31.0738 49.4808 30.8172 48.778 30.9225 48.0809C30.9225 48.0001 30.9225 47.9132 30.9596 47.8386C30.9967 47.7641 31.0153 47.6523 31.0091 47.6771V47.6398V47.5653L31.0709 47.41C31.1388 47.2174 31.2258 47.0322 31.3307 46.8572C31.4152 46.6892 31.5146 46.5291 31.6275 46.3789C31.9933 45.8583 32.4234 45.3866 32.9077 44.9751C33.3406 44.6024 33.7674 44.2732 34.1941 43.9688L34.8125 43.5713L34.9919 43.447L34.8311 43.534L34.5713 43.6769C34.3487 43.8011 34.1261 43.9377 33.9034 44.0682C33.0129 44.6148 32.1285 45.2235 31.1699 45.8633L30.805 46.1056L30.502 46.3044L30.1495 46.5218C29.6996 46.8094 29.2155 47.039 28.7085 47.205C28.2369 47.3354 27.7391 47.3354 27.2675 47.205C27.1527 47.1778 27.0464 47.1223 26.9583 47.0435L26.6614 46.8386L26.043 46.4286L21.6521 41.2109L21.8623 41.1363Z" fill="#0875A4"/>
<path d="M27.5518 26.9743C28.089 27.3242 28.5795 27.7417 29.0113 28.2166L29.2773 28.5085V28.5644L29.3453 28.6887L29.5185 29.0055C29.5494 29.0489 29.5927 29.1794 29.6422 29.1297C29.672 29.095 29.6951 29.0549 29.7102 29.0117C29.7658 28.8688 29.7473 28.6514 29.8215 28.5023C29.8215 28.5023 29.8215 28.5023 29.8215 28.434L29.8895 28.1855L30.0503 27.6389L30.1493 27.3345L30.3101 26.9494C30.4252 26.6816 30.566 26.4257 30.7306 26.1854C31.0015 25.7458 31.3891 25.3908 31.85 25.1605C32.3067 24.9426 32.8238 24.8878 33.3157 25.0052C33.8139 25.1172 34.2783 25.3472 34.6701 25.6761C34.8666 25.8444 35.0544 26.0227 35.2329 26.2103C35.3813 26.4028 35.4988 26.6078 35.6287 26.8314C36.003 27.5268 36.2303 28.2923 36.2966 29.08C36.3399 29.4092 36.3399 29.7012 36.3708 30.0366C36.4017 30.372 36.3708 30.6577 36.3708 30.9683C36.3776 31.5676 36.3529 32.1668 36.2966 32.7635C36.2224 33.5213 36.1296 34.2667 36.0121 34.9996C35.9503 35.3661 35.7647 35.714 35.6967 36.0742C35.6287 36.4345 35.5421 36.7948 35.4803 37.1551C35.4184 37.5153 35.1958 37.5464 34.9608 37.1551C34.8103 36.8877 34.69 36.6044 34.6021 36.3103C34.534 36.1302 34.5093 35.9438 34.4413 35.7388C34.3549 35.5364 34.2806 35.3289 34.2186 35.1177C34.132 34.3412 34.1506 33.602 34.1011 32.8691L34.0331 31.7945C34.0331 31.4466 34.0331 31.0988 33.9836 30.7633C33.9533 30.1515 33.8537 29.545 33.6868 28.9558C33.6588 28.8315 33.6173 28.7107 33.5631 28.5955C33.5198 28.5085 33.4703 28.3532 33.4456 28.316C33.3714 28.1669 33.359 28.0862 33.3095 27.9868C33.2463 27.8554 33.12 27.7662 32.9756 27.7507C32.8326 27.7761 32.7119 27.8717 32.654 28.0054C32.6187 28.073 32.5897 28.1437 32.5674 28.2166C32.5241 28.3346 32.4561 28.5334 32.4004 28.7322L32.3076 29.0552L32.1716 29.6142L31.9304 30.7385C31.8256 31.3914 31.5739 32.0118 31.1944 32.5523C31.1225 32.641 31.0439 32.724 30.9594 32.8007C30.8666 32.8897 30.7544 32.9557 30.6317 32.9933C30.5265 33.012 30.4181 32.9898 30.3286 32.9312C30.242 32.8815 30.174 32.8629 30.0689 32.7945L29.7658 32.6082L29.4071 32.3287L29.3144 32.2603L29.2154 32.1299L29.0237 31.869L28.6403 31.3534L28.2568 30.8192L27.861 30.3596C27.793 30.2851 27.7312 30.2043 27.657 30.136L27.5271 29.9931C27.4405 29.9124 27.3663 29.8192 27.2797 29.7446C26.9598 29.4238 26.5901 29.1574 26.1851 28.9558C26.0418 28.8901 25.8813 28.8726 25.7274 28.9061C25.5755 28.9571 25.4421 29.0522 25.344 29.1794C25.1884 29.3945 25.1199 29.6609 25.1523 29.9248C25.1825 30.3278 25.2743 30.7238 25.4244 31.0988C25.7536 31.9375 26.188 32.7307 26.7169 33.4592C27.5832 34.5847 28.5544 35.6247 29.6174 36.565C29.8462 36.7824 30.0874 36.9749 30.3101 37.1861C31.1512 37.9998 31.3119 38.3415 31.0955 38.9564C31.0555 39.0976 31.0081 39.2365 30.9533 39.3726C30.7368 39.795 30.0998 39.7391 29.3577 39.1987C27.0603 37.4916 25.1294 35.3367 23.6804 32.8629C23.3723 32.322 23.1235 31.7493 22.9382 31.1547C22.8385 30.8051 22.7682 30.4477 22.728 30.0863C22.7118 29.8484 22.7118 29.6098 22.728 29.3719C22.7481 29.1205 22.798 28.8724 22.8764 28.6328C22.9101 28.5122 22.9514 28.394 23.0001 28.2787L23.1794 27.9495C23.2981 27.7271 23.4412 27.5187 23.6062 27.3283C23.7793 27.1668 23.9648 27.0053 24.1566 26.8563C24.354 26.7272 24.5607 26.613 24.775 26.5146C25.7206 26.2336 26.7409 26.3738 27.5766 26.8997L27.5518 26.9743Z" fill="#0875A4"/>
<path d="M10.4459 12.0103C10.6376 12.0103 10.5819 12.2774 10.3716 12.6935C10.264 12.8844 10.1213 13.0531 9.9511 13.1905C9.82679 13.2405 9.69853 13.28 9.56767 13.3085C9.50582 13.3085 8.76988 13.0662 8.49776 13.0103C8.25355 12.9453 8.02163 12.8403 7.81129 12.6998C7.37838 12.4389 6.92692 12.1966 6.48164 11.9419C6.38061 11.886 6.29383 11.8073 6.22808 11.7121C5.98161 11.3963 5.65769 11.1501 5.28804 10.9978C5.22693 10.9491 5.14535 10.9351 5.07159 10.9605C4.63402 10.8612 4.23062 10.6468 3.90273 10.3394C3.72957 9.97287 3.51311 9.66851 3.31521 9.33308C3.28429 9.2896 3.22863 9.28339 3.24718 9.17158C3.29666 8.92312 3.19152 8.88585 3.11731 8.79888C3.00445 8.66617 2.92963 8.50514 2.90085 8.33302C2.88461 8.21764 2.88461 8.10054 2.90085 7.98517C2.90085 7.87957 3.0802 7.70565 3.11731 7.69322C3.15441 7.6808 3.25337 7.53793 3.31521 7.45097C3.33434 7.41745 3.35716 7.3862 3.38324 7.3578C3.38324 7.3578 3.68009 7.32053 4.00168 7.26462C4.20668 7.23373 4.41512 7.23373 4.62012 7.26462L4.81184 7.34537L5.2262 7.50688L5.93741 7.76155C6.00544 7.76155 6.03017 7.87336 6.07346 7.9479C6.11676 8.02244 6.98876 8.39513 7.01968 8.42619C7.16811 8.56906 7.38456 8.61875 7.43404 8.91069C7.43404 8.9666 7.48351 8.97902 7.52062 9.00387C7.79315 9.20713 8.04209 9.44049 8.26275 9.69956C8.39263 9.8238 8.55961 9.91076 8.70185 10.0226C8.70185 10.0226 8.73895 10.0847 8.75751 10.1157C8.77606 10.1468 8.8008 10.2027 8.8379 10.2213C9.1667 10.5068 9.51377 10.7703 9.87689 11.0102C9.96965 11.0599 10.2232 11.5382 10.3284 11.5879C10.4335 11.6376 10.3716 12.0165 10.4459 12.0103Z" fill="#0875A4"/>
<path d="M14.9294 7.48217C15.0717 7.6064 14.8367 7.74926 14.3914 7.8735C14.1882 7.91673 13.9801 7.93136 13.7729 7.91698C13.6431 7.85486 13.5194 7.79896 13.4266 7.74305C13.3338 7.68715 13.0494 7.12189 12.9009 6.90449C12.7731 6.71591 12.6809 6.50537 12.6288 6.28333C12.5051 5.85473 12.3505 5.43234 12.2021 4.99132C12.1802 4.88896 12.1802 4.7831 12.2021 4.68074C12.2427 4.31748 12.176 3.95026 12.0104 3.62477C12.0104 3.56887 12.0104 3.50675 11.8805 3.46948C11.6329 3.12954 11.4929 2.72265 11.4785 2.30171C11.6022 1.93522 11.664 1.58116 11.7568 1.2271C11.7568 1.17741 11.7568 1.13393 11.8187 1.07181C11.9503 1.01765 12.0236 0.875694 11.9918 0.736386C12.0052 0.573762 12.0607 0.417467 12.1526 0.28294C12.2239 0.197241 12.3049 0.120118 12.3938 0.0531117C12.5064 0.00308015 12.6313 -0.0120598 12.7525 0.00963066C12.8453 0.0655349 12.9628 0.00963066 13.0679 0.00963066H13.1792C13.1792 0.00963066 13.4142 0.177343 13.6616 0.332633C13.815 0.433848 13.9525 0.557354 14.0698 0.699116C14.0698 0.699116 14.1007 0.767444 14.144 0.866829L14.3234 1.22089C14.4532 1.48178 14.6202 1.74266 14.6449 1.80478C14.6697 1.86689 14.6449 1.93522 14.6449 2.00355C14.6449 2.07188 14.9913 2.85454 14.9975 2.89181C14.9975 3.07815 15.1273 3.23965 14.9665 3.46948C14.9478 3.50439 14.9478 3.54639 14.9665 3.58129C15.0425 3.9027 15.0778 4.23244 15.0717 4.56272C15.093 4.72797 15.124 4.89182 15.1644 5.05344C15.1703 5.0863 15.1703 5.11996 15.1644 5.15282C15.1528 5.1934 15.1528 5.23647 15.1644 5.27705C15.2098 5.68188 15.2758 6.08409 15.3623 6.4821C15.3933 6.57527 15.2325 7.05978 15.2758 7.16537C15.319 7.27097 14.88 7.43868 14.9294 7.48217Z" fill="#0875A4"/>
<path d="M9.27679 18.309C9.46232 18.2096 9.57364 18.4767 9.61693 18.9301C9.61519 19.1426 9.57539 19.353 9.49943 19.5513C9.40048 19.6631 9.30771 19.7749 9.22113 19.8557C8.85801 19.9699 8.50092 20.1026 8.15122 20.2532C7.91529 20.3605 7.66544 20.4337 7.40909 20.4706C6.90197 20.5762 6.39485 20.7191 5.86917 20.8619C5.74879 20.8867 5.62467 20.8867 5.50429 20.8619C5.08999 20.7858 4.66296 20.8222 4.2674 20.9675C4.19319 20.9675 4.11898 20.9675 4.0695 21.0918C3.63475 21.3245 3.15193 21.4521 2.65945 21.4645C2.23891 21.334 1.82455 21.2719 1.42257 21.1787C1.36691 21.1787 1.31125 21.1787 1.24322 21.1042C1.09479 20.8744 0.977288 20.9303 0.853599 20.9178C0.669244 20.8845 0.490297 20.826 0.321739 20.7439C0.221406 20.6747 0.131796 20.591 0.0558084 20.4955C-0.0245892 20.4147 0.000148538 20.129 0.0187018 20.0917C0.0372551 20.0544 0.0187018 19.8557 0.0187018 19.7376C0.0187018 19.6196 0.0187018 19.6445 0.0187018 19.6072C0.150896 19.4448 0.291259 19.2893 0.439243 19.1413C0.568014 18.9652 0.72721 18.8137 0.909259 18.6941L1.11953 18.6196L1.56481 18.4456L2.2822 18.1413C2.35023 18.104 2.443 18.1413 2.52339 18.1413C2.60379 18.1413 3.58712 17.7499 3.63659 17.7499C3.86542 17.7499 4.07569 17.6071 4.34162 17.781C4.39109 17.8183 4.43438 17.781 4.48386 17.781C4.88964 17.6907 5.30712 17.6655 5.72074 17.7065C5.93101 17.7065 6.1351 17.6754 6.33919 17.6692C6.37629 17.6692 6.41958 17.6692 6.45669 17.7065C6.50497 17.7233 6.55464 17.7357 6.60512 17.7437C7.11224 17.7002 7.61936 17.7996 8.13267 17.7437C8.25636 17.7437 8.81914 17.9922 8.9552 17.986C9.09126 17.9798 9.20876 18.3463 9.27679 18.309Z" fill="#0875A4"/>
</svg>
