<svg width="114" height="81" viewBox="0 0 114 81" fill="none" xmlns="http://www.w3.org/2000/svg">
<path opacity="0.1" d="M113.72 24.3C113.72 36.45 111.062 47.5875 105.747 57.7125C100.431 67.8375 92.5842 75.5578 82.2061 80.8735L69.2967 70.2422C75.1186 68.2172 80.1811 63.7875 84.4842 56.9531C89.5467 49.8656 92.0779 43.411 92.0779 37.5891H67.3982V0H113.72V24.3ZM46.8951 24.3C46.8951 36.1969 44.1107 47.5875 38.542 58.4719C32.7201 69.3563 24.9998 76.8234 15.3811 80.8735L2.47168 70.2422C8.29355 68.2172 13.3561 63.7875 17.6592 56.9531C22.7217 49.8656 25.2529 43.411 25.2529 37.5891H0.573242V0H46.8951V24.3Z" fill="#1E1E1E"/>
</svg>
